# xmcd CD database file
#
# Track frame offsets:
#	150
#	19817
#	39477
#	59147
#
# Disc length: 1048 seconds
#
# Revision: 0
# Processed by: cddbd v1.5PL3 Copyright (c) Steve Scherf et al.
# Submitted via: CDex 1.51
#
DISCID=32041604
DTITLE=サイコガルバノメーター kazumi saitoh with ERRY and MAKI - USSO!
DYEAR=1995
DGENRE=JPop
TTITLE0=USSO!
TTITLE1=USSO! (男用カラオケ)
TTITLE2=USSO! (女用カラオケ)
TTITLE3=USSO! (オリジナル・カラオケ)
EXTD=YEAR: 1995
EXTT0=
EXTT1=
EXTT2=
EXTT3=
PLAYORDER=
